HIERARCHY
ROOT Hips
{
    OFFSET 0.000000 0.000000 0.000000
    CHANNELS 6 Xposition Yposition Zposition Zrotation Xrotation Yrotation
    JOINT Spine
    {
        OFFSET -0.000000 8.339920 0.000000
        CHANNELS 3 Zrotation Xrotation Yrotation
        JOINT Spine1
        {
            OFFSET -0.000000 25.214485 0.000000
            CHANNELS 3 Zrotation Xrotation Yrotation
            JOINT Neck
            {
                OFFSET -0.000000 25.110935 2.282812
                CHANNELS 3 Zrotation Xrotation Yrotation
                JOINT Head
                {
                    OFFSET -0.000000 14.238888 -2.034127
                    CHANNELS 3 Zrotation Xrotation Yrotation
                    End Site
                    {
                        OFFSET -0.000000 25.426584 0.000000
                    }
                }
            }
            JOINT LeftShoulder
            {
                OFFSET 4.025024 23.158985 -0.185822
                CHANNELS 3 Zrotation Xrotation Yrotation
                JOINT LeftArm
                {
                    OFFSET 11.674057 0.000000 0.000000
                    CHANNELS 3 Zrotation Xrotation Yrotation
                    JOINT LeftForeArm
                    {
                        OFFSET 31.688633 0.000000 0.000000
                        CHANNELS 3 Zrotation Xrotation Yrotation
                        JOINT LeftHand
                        {
                            OFFSET 29.704493 0.000000 0.000000
                            CHANNELS 3 Zrotation Xrotation Yrotation
                            End Site
                            {
                                OFFSET 15.255952 0.000000 0.000000
                            }
                        }
                    }
                }
            }
            JOINT RightShoulder
            {
                OFFSET -4.099539 23.158985 -0.185822
                CHANNELS 3 Zrotation Xrotation Yrotation
                JOINT RightArm
                {
                    OFFSET -11.674057 0.000000 0.000000
                    CHANNELS 3 Zrotation Xrotation Yrotation
                    JOINT RightForeArm
                    {
                        OFFSET -31.688633 0.000000 0.000000
                        CHANNELS 3 Zrotation Xrotation Yrotation
                        JOINT RightHand
                        {
                            OFFSET -29.704493 0.000000 0.000000
                            CHANNELS 3 Zrotation Xrotation Yrotation
                            End Site
                            {
                                OFFSET -15.255952 0.000000 0.000000
                            }
                        }
                    }
                }
            }
        }
    }
    JOINT LeftUpLeg
    {
        OFFSET 10.170634 0.000000 0.000000
        CHANNELS 3 Zrotation Xrotation Yrotation
        JOINT LeftLeg
        {
            OFFSET -0.000000 -41.352962 0.000000
            CHANNELS 3 Zrotation Xrotation Yrotation
            JOINT LeftFoot
            {
                OFFSET -0.000000 -47.535004 0.000000
                CHANNELS 3 Zrotation Xrotation Yrotation
                JOINT LeftToeBase
                {
                    OFFSET -0.000000 -6.610912 15.255952
                    CHANNELS 3 Zrotation Xrotation Yrotation
                    End Site
                    {
                        OFFSET -0.000000 0.000000 4.068254
                    }
                }
            }
        }
    }
    JOINT RightUpLeg
    {
        OFFSET -10.170634 0.000000 0.000000
        CHANNELS 3 Zrotation Xrotation Yrotation
        JOINT RightLeg
        {
            OFFSET -0.000000 -41.352962 0.000000
            CHANNELS 3 Zrotation Xrotation Yrotation
            JOINT RightFoot
            {
                OFFSET -0.000000 -47.535004 0.000000
                CHANNELS 3 Zrotation Xrotation Yrotation
                JOINT RightToeBase
                {
                    OFFSET -0.000000 -6.610912 15.255952
                    CHANNELS 3 Zrotation Xrotation Yrotation
                    End Site
                    {
                        OFFSET -0.000000 0.000000 4.068254
                    }
                }
            }
        }
    }
}
MOTION
Frames:    9
Frame Time:    0.008333
26.179564    92.222115    43.505795    -19.118301    2.743759    77.499359    -1.675863    2.445395    0.609717    5.536795    2.704670    0.443185    -18.132526    23.702932    -11.388731    36.102760    -29.992464    1.436257    18.715155    -2.539808    0.921551    9.279035    -15.933301    -1.419898    37.972820    -10.027858    -39.481808    56.338020    1.276832    -5.343949    -14.440316    1.111515    1.459358    68.333839    60.832989    8.442244    -5.810623    -5.775449    23.817904    -5.816801    -4.654729    1.988391    3.935990    -42.115585    -3.168849    -5.682951    23.900738    11.752836    0.069983    1.522532    5.592409    0.000000    0.000000    0.000000    3.694938    -27.975977    0.144307    -1.578931    27.254421    -4.271108    -1.451450    -17.326685    -6.395051    0.000000    0.000000    0.000000    
26.284950    92.208305    43.450233    -19.328033    2.762264    77.667763    -1.726918    2.529026    0.582406    5.617601    2.666532    0.413391    -18.096939    23.622351    -11.449088    36.148586    -30.044338    1.425752    18.839966    -2.774576    0.778142    9.147399    -16.057083    -1.894306    35.838924    -11.771164    -39.119602    52.975887    -1.007778    -4.765412    -14.322381    1.114610    1.613061    68.071968    61.419872    8.561666    -5.906997    -6.383066    24.327888    -6.029964    -5.251461    2.597244    3.777548    -42.390530    -3.060588    -5.577620    24.051504    11.944498    0.159823    1.522193    5.103847    0.000000    0.000000    0.000000    3.551786    -28.285479    0.058380    -1.539479    27.562782    -4.365003    -1.338612    -17.388830    -6.188801    0.000000    0.000000    0.000000    
26.386944    92.196045    43.393417    -19.548512    2.809612    77.827469    -1.755419    2.629954    0.545133    5.607557    2.539412    0.380628    -18.048281    23.494535    -11.389076    36.039284    -29.989864    1.452190    18.976969    -2.754366    0.602865    8.832895    -16.032267    -2.363363    34.540676    -13.752850    -38.237617    49.828892    -2.653411    -2.507469    -14.090494    1.136325    1.769550    67.699677    62.038937    8.664764    -6.008399    -6.987837    24.921688    -6.139953    -5.835787    3.160515    3.668495    -42.695831    -2.932938    -5.585019    24.231031    12.029101    0.244067    1.528239    4.769330    0.000000    0.000000    0.000000    3.389451    -28.637047    0.034793    -1.500147    27.919777    -4.524973    -1.327738    -17.389147    -5.823112    0.000000    0.000000    0.000000    
26.468533    92.184052    43.349838    -19.801008    2.814701    78.016296    -1.736363    2.687426    0.493997    5.607347    2.447100    0.333573    -18.077812    23.444014    -11.439434    36.206940    -29.944069    1.463307    19.113182    -2.863827    0.289832    8.375640    -15.865231    -2.720869    33.744331    -15.935319    -37.307281    47.900379    -4.100291    0.602798    -13.889770    1.172970    1.900638    67.305054    62.378605    8.894929    -6.092135    -7.402241    25.397844    -5.950602    -6.236781    3.850983    3.622084    -43.063023    -2.795843    -5.623157    24.464003    11.959979    0.357211    1.541777    4.586938    0.000000    0.000000    0.000000    3.281307    -29.052881    -0.246972    -1.603212    28.330896    -4.325102    -1.121713    -17.425655    -5.534813    0.000000    0.000000    0.000000    
26.554605    92.168930    43.316467    -20.035795    2.788036    78.192230    -1.714533    2.770519    0.423773    5.637989    2.335089    0.267415    -18.008867    23.707520    -11.466733    36.455967    -30.400595    1.642742    19.160185    -2.774160    0.012887    7.970168    -15.837922    -3.210816    33.059361    -18.542576    -36.077110    44.880497    -6.096735    4.011132    -13.644905    1.169969    2.069151    66.897659    62.401119    9.044065    -5.890098    -7.683694    25.939247    -6.149230    -6.584577    4.651029    3.633837    -43.412437    -2.634485    -5.687323    24.724104    11.753123    0.454076    1.504058    4.550390    0.000000    0.000000    0.000000    3.220706    -29.395189    -0.140055    -1.529915    28.699345    -4.149825    -1.021326    -17.485847    -5.589082    0.000000    0.000000    0.000000    
26.631895    92.164467    43.303619    -20.250362    2.716604    78.347870    -1.600024    2.986775    0.259535    5.582593    2.039454    0.118309    -18.127157    23.722086    -11.334045    36.607971    -30.429796    1.846379    19.184134    -2.806197    -0.156288    7.626195    -15.999904    -3.521463    31.959059    -21.328875    -35.535618    42.235950    -8.287128    7.699147    -13.348396    1.213858    2.389236    66.464584    62.574055    9.275654    -5.929150    -8.011533    26.403877    -6.105534    -6.900885    5.094984    3.704809    -43.740707    -2.453141    -5.723825    24.998833    11.566933    0.529439    1.490608    4.473015    0.000000    0.000000    0.000000    3.264426    -29.703665    -0.211705    -1.646845    29.028440    -4.002712    -0.825983    -17.454266    -5.352684    0.000000    0.000000    0.000000    
26.677322    92.150627    43.282501    -20.535963    2.646739    78.537437    -1.613924    2.898963    0.262224    5.701164    2.202631    0.111735    -17.874029    23.630148    -11.367386    36.469707    -30.652563    1.857694    19.251741    -3.003506    -0.639761    7.410514    -16.789391    -3.730639    29.839539    -24.980885    -35.929436    40.272743    -11.213795    12.494182    -13.189754    1.141041    2.337139    65.886276    62.810936    9.621668    -5.850413    -8.383397    27.011347    -6.305161    -7.283461    5.370031    3.735571    -44.190842    -2.338227    -5.727548    25.311682    11.495423    0.579221    1.511839    4.281020    0.000000    0.000000    0.000000    3.277682    -30.129448    -0.200280    -1.665777    29.445498    -3.822143    -0.728424    -17.445936    -5.248042    0.000000    0.000000    0.000000    
26.721531    92.135262    43.242855    -20.804455    2.648034    78.653061    -1.592317    2.952161    0.194255    5.634346    2.080605    0.051013    -17.624884    23.312691    -11.327045    36.083435    -30.413086    1.732453    19.365164    -3.161994    -0.940590    7.160278    -17.612034    -3.934315    26.897619    -29.153370    -37.109043    39.749813    -15.095566    16.492315    -12.869860    1.184530    2.421283    65.258255    62.914276    9.996374    -5.833989    -8.720238    27.510725    -6.170549    -7.619100    5.873494    3.707556    -44.645695    -2.247633    -5.729723    25.655315    11.397701    0.614049    1.538624    4.222026    0.000000    0.000000    0.000000    3.244149    -30.537914    -0.072059    -1.684186    29.817705    -3.797531    -0.579132    -17.457396    -4.956993    0.000000    0.000000    0.000000    
26.776474    92.118523    43.223316    -21.020617    2.584930    78.782211    -1.530901    3.006742    0.072973    5.583384    2.038899    -0.067331    -17.384998    23.401123    -11.287500    36.120171    -30.766197    1.902468    19.450092    -3.411073    -1.233055    6.945735    -18.175518    -3.932154    23.454292    -33.692936    -38.957127    40.561138    -19.310318    20.599621    -12.624628    1.084562    2.579763    64.773682    63.025078    10.282870    -5.740581    -8.986744    27.918756    -6.079238    -7.911238    6.410372    3.683295    -44.975201    -2.103724    -5.615774    25.913446    11.210354    0.699152    1.499492    4.094079    0.000000    0.000000    0.000000    3.282788    -30.907547    0.037050    -1.728942    30.244865    -3.784214    -0.455761    -17.407698    -4.663144    0.000000    0.000000    0.000000    
